<?xml version="1.0" encoding="UTF-8"?>
<svg width="144px" height="129px" viewBox="0 0 144 129" version="1.1" xmlns="http://www.w3.org/2000/svg" xmlns:xlink="http://www.w3.org/1999/xlink">
    <title>服务器异常</title>
    <defs>
        <polygon id="path-1" points="0 2.001 143.9988 2.001 143.9988 126 0 126"></polygon>
    </defs>
    <g id="页面-1" stroke="none" stroke-width="1" fill="none" fill-rule="evenodd">
        <g id="空白页" transform="translate(-1617.000000, -248.000000)">
            <g id="服务器异常" transform="translate(1617.000000, 248.000000)">
                <g id="编组" transform="translate(0.000000, 0.999900)">
                    <mask id="mask-2" fill="white">
                        <use xlink:href="#path-1"></use>
                    </mask>
                    <g id="Clip-2"></g>
                    <path d="M8.6148,55.539 C8.6148,57.18 6.1548,57.18 6.1548,55.539 L6.1548,50.922 C6.1548,50.244 6.7038,49.692 7.3848,49.692 L11.9988,49.692 C13.6398,49.692 13.6398,52.155 11.9988,52.155 L8.6148,52.155 L8.6148,55.539 Z M120.1548,7.386 L124.3068,7.386 C125.9478,7.386 125.9478,9.846 124.3068,9.846 L120.1548,9.846 L120.1548,14.001 C120.1548,15.642 117.6918,15.642 117.6918,14.001 L117.6918,9.846 L113.5398,9.846 C111.8988,9.846 111.8988,7.386 113.5398,7.386 L117.6918,7.386 L117.6918,3.231 C117.6918,1.59 120.1548,1.59 120.1548,3.231 L120.1548,7.386 Z M6.1548,46.308 C6.1548,44.667 8.6148,44.667 8.6148,46.308 L8.6148,50.922 C8.6148,51.603 8.0628,52.155 7.3848,52.155 L2.7678,52.155 C1.1268,52.155 1.1268,49.692 2.7678,49.692 L6.1548,49.692 L6.1548,46.308 Z M125.5398,92.463 C125.5398,94.101 123.0768,94.101 123.0768,92.463 L123.0768,87.846 C123.0768,87.165 123.6288,86.616 124.3068,86.616 L128.9238,86.616 C130.5648,86.616 130.5648,89.076 128.9238,89.076 L125.5398,89.076 L125.5398,92.463 Z M123.0768,83.229 C123.0768,81.591 125.5398,81.591 125.5398,83.229 L125.5398,87.846 C125.5398,88.527 124.9878,89.076 124.3068,89.076 L119.6928,89.076 C118.0518,89.076 118.0518,86.616 119.6928,86.616 L123.0768,86.616 L123.0768,83.229 Z M54.3078,126 C53.6268,126 53.0778,125.448 53.0778,124.77 C53.0778,124.089 53.6268,123.54 54.3078,123.54 L101.2308,123.54 C101.9118,123.54 102.4608,124.089 102.4608,124.77 C102.4608,125.448 101.9118,126 101.2308,126 L54.3078,126 Z M36.6138,126 C35.9358,126 35.3838,125.448 35.3838,124.77 C35.3838,124.089 35.9358,123.54 36.6138,123.54 L47.3838,123.54 C48.0648,123.54 48.6138,124.089 48.6138,124.77 C48.6138,125.448 48.0648,126 47.3838,126 L36.6138,126 Z M128.9238,114.462 C128.2428,114.462 127.6908,113.91 127.6908,113.229 C127.6908,112.551 128.2428,111.999 128.9238,111.999 L142.7688,111.999 C143.4498,111.999 143.9988,112.551 143.9988,113.229 C143.9988,113.91 143.4498,114.462 142.7688,114.462 L128.9238,114.462 Z M115.0758,114.462 C114.3978,114.462 113.8458,113.91 113.8458,113.229 C113.8458,112.551 114.3978,111.999 115.0758,111.999 L118.9248,111.999 C119.6028,111.999 120.1548,112.551 120.1548,113.229 C120.1548,113.91 119.6028,114.462 118.9248,114.462 L115.0758,114.462 Z M1.2318,114.462 C0.5508,114.462 -0.0012,113.91 -0.0012,113.229 C-0.0012,112.551 0.5508,111.999 1.2318,111.999 L108.9228,111.999 C109.6038,111.999 110.1528,112.551 110.1528,113.229 C110.1528,113.91 109.6038,114.462 108.9228,114.462 L1.2318,114.462 Z" id="Fill-1" fill="#C3CBD6" mask="url(#mask-2)"></path>
                </g>
                <path d="M33.0879,20.889 C32.3619,21.615 31.2759,20.526 31.9989,19.803 L33.6309,18.171 C33.9309,17.871 34.4199,17.871 34.7199,18.171 L36.3519,19.803 C37.0779,20.526 35.9889,21.615 35.2629,20.889 L34.1769,19.803 L33.0879,20.889 Z M35.2629,16.539 C35.9889,15.813 37.0779,16.899 36.3519,17.628 L34.7199,19.26 C34.4199,19.56 33.9309,19.56 33.6309,19.26 L31.9989,17.628 C31.2759,16.899 32.3619,15.813 33.0879,16.539 L34.1769,17.628 L35.2629,16.539 Z M19.5069,101.418 C18.7809,102.141 17.6919,101.055 18.4179,100.329 L20.0499,98.7 C20.3499,98.397 20.8389,98.397 21.1389,98.7 L22.7709,100.329 C23.4939,101.055 22.4049,102.141 21.6819,101.418 L20.5929,100.329 L19.5069,101.418 Z M21.6819,97.068 C22.4049,96.342 23.4939,97.428 22.7709,98.154 L21.1389,99.786 C20.8389,100.086 20.3499,100.086 20.0499,99.786 L18.4179,98.154 C17.6919,97.428 18.7809,96.342 19.5069,97.068 L20.5929,98.154 L21.6819,97.068 Z" id="Fill-3" fill="#C3CBD6"></path>
                <path d="M48.9228,58.077 L95.0778,58.077 C97.6248,58.077 99.6918,60.141 99.6918,62.694 L99.6918,98.076 C99.6918,100.626 97.6248,102.693 95.0778,102.693 L48.9228,102.693 C46.3728,102.693 44.3058,100.626 44.3058,98.076 L44.3058,62.694 C44.3058,60.141 46.3728,58.077 48.9228,58.077" id="Fill-5" fill="#F5F7F9"></path>
                <path d="M48.9228,59.3076 C47.0568,59.3076 45.5388,60.8256 45.5388,62.6916 L45.5388,98.0766 C45.5388,99.9426 47.0568,101.4606 48.9228,101.4606 L95.0778,101.4606 C96.9438,101.4606 98.4618,99.9426 98.4618,98.0766 L98.4618,62.6916 C98.4618,60.8256 96.9438,59.3076 95.0778,59.3076 L48.9228,59.3076 Z M95.0778,103.9236 L48.9228,103.9236 C45.6978,103.9236 43.0758,101.3016 43.0758,98.0766 L43.0758,62.6916 C43.0758,59.4696 45.6978,56.8476 48.9228,56.8476 L95.0778,56.8476 C98.2998,56.8476 100.9218,59.4696 100.9218,62.6916 L100.9218,98.0766 C100.9218,101.3016 98.2998,103.9236 95.0778,103.9236 L95.0778,103.9236 Z" id="Fill-7" fill="#C3CBD6"></path>
                <path d="M39.693,84.2304 L104.307,84.2304 C106.857,84.2304 108.924,86.2974 108.924,88.8474 L108.924,99.6144 C108.924,102.1644 106.857,104.2314 104.307,104.2314 L39.693,104.2314 C37.143,104.2314 35.076,102.1644 35.076,99.6144 L35.076,88.8474 C35.076,86.2974 37.143,84.2304 39.693,84.2304 M39.693,58.0764 L104.307,58.0764 C106.857,58.0764 108.924,60.1434 108.924,62.6934 L108.924,73.4604 C108.924,76.0104 106.857,78.0774 104.307,78.0774 L39.693,78.0774 C37.143,78.0774 35.076,76.0104 35.076,73.4604 L35.076,62.6934 C35.076,60.1434 37.143,58.0764 39.693,58.0764" id="Fill-9" fill="#FFFFFF"></path>
                <path d="M39.693,59.3076 C37.827,59.3076 36.309,60.8256 36.309,62.6916 L36.309,73.4616 C36.309,75.3276 37.827,76.8456 39.693,76.8456 L104.307,76.8456 C106.173,76.8456 107.694,75.3276 107.694,73.4616 L107.694,62.6916 C107.694,60.8256 106.173,59.3076 104.307,59.3076 L39.693,59.3076 Z M104.307,79.3086 L39.693,79.3086 C36.468,79.3086 33.846,76.6836 33.846,73.4616 L33.846,62.6916 C33.846,59.4696 36.468,56.8476 39.693,56.8476 L104.307,56.8476 C107.532,56.8476 110.154,59.4696 110.154,62.6916 L110.154,73.4616 C110.154,76.6836 107.532,79.3086 104.307,79.3086 L104.307,79.3086 Z M39.693,85.4616 C37.827,85.4616 36.309,86.9796 36.309,88.8456 L36.309,99.6156 C36.309,101.4816 37.827,102.9996 39.693,102.9996 L104.307,102.9996 C106.173,102.9996 107.694,101.4816 107.694,99.6156 L107.694,88.8456 C107.694,86.9796 106.173,85.4616 104.307,85.4616 L39.693,85.4616 Z M104.307,105.4626 L39.693,105.4626 C36.468,105.4626 33.846,102.8406 33.846,99.6156 L33.846,88.8456 C33.846,85.6206 36.468,82.9986 39.693,82.9986 L104.307,82.9986 C107.532,82.9986 110.154,85.6206 110.154,88.8456 L110.154,99.6156 C110.154,102.8406 107.532,105.4626 104.307,105.4626 L104.307,105.4626 Z" id="Fill-11" fill="#C3CBD6"></path>
                <path d="M46.6158,98.0775 C44.4918,98.0775 42.7698,96.3555 42.7698,94.2315 C42.7698,92.1075 44.4918,90.3855 46.6158,90.3855 C48.7398,90.3855 50.4618,92.1075 50.4618,94.2315 C50.4618,96.3555 48.7398,98.0775 46.6158,98.0775 M58.9248,98.0775 C56.8008,98.0775 55.0758,96.3555 55.0758,94.2315 C55.0758,92.1075 56.8008,90.3855 58.9248,90.3855 C61.0488,90.3855 62.7678,92.1075 62.7678,94.2315 C62.7678,96.3555 61.0488,98.0775 58.9248,98.0775 M46.6158,71.9235 C44.4918,71.9235 42.7698,70.2015 42.7698,68.0775 C42.7698,65.9535 44.4918,64.2315 46.6158,64.2315 C48.7398,64.2315 50.4618,65.9535 50.4618,68.0775 C50.4618,70.2015 48.7398,71.9235 46.6158,71.9235 M58.9248,71.9235 C56.8008,71.9235 55.0758,70.2015 55.0758,68.0775 C55.0758,65.9535 56.8008,64.2315 58.9248,64.2315 C61.0488,64.2315 62.7678,65.9535 62.7678,68.0775 C62.7678,70.2015 61.0488,71.9235 58.9248,71.9235" id="Fill-13" fill="#F5F7F9"></path>
                <path d="M46.6158,64.9998 C44.9208,64.9998 43.5378,66.3798 43.5378,68.0778 C43.5378,69.7728 44.9208,71.1528 46.6158,71.1528 C48.3108,71.1528 49.6908,69.7728 49.6908,68.0778 C49.6908,66.3798 48.3108,64.9998 46.6158,64.9998 M46.6158,72.6918 C44.0688,72.6918 41.9988,70.6218 41.9988,68.0778 C41.9988,65.5308 44.0688,63.4608 46.6158,63.4608 C49.1598,63.4608 51.2298,65.5308 51.2298,68.0778 C51.2298,70.6218 49.1598,72.6918 46.6158,72.6918 M58.9248,64.9998 C57.2268,64.9998 55.8468,66.3798 55.8468,68.0778 C55.8468,69.7728 57.2268,71.1528 58.9248,71.1528 C60.6198,71.1528 61.9998,69.7728 61.9998,68.0778 C61.9998,66.3798 60.6198,64.9998 58.9248,64.9998 M58.9248,72.6918 C56.3778,72.6918 54.3078,70.6218 54.3078,68.0778 C54.3078,65.5308 56.3778,63.4608 58.9248,63.4608 C61.4688,63.4608 63.5388,65.5308 63.5388,68.0778 C63.5388,70.6218 61.4688,72.6918 58.9248,72.6918 M46.6158,91.1538 C44.9208,91.1538 43.5378,92.5338 43.5378,94.2318 C43.5378,95.9268 44.9208,97.3098 46.6158,97.3098 C48.3108,97.3098 49.6908,95.9268 49.6908,94.2318 C49.6908,92.5338 48.3108,91.1538 46.6158,91.1538 M46.6158,98.8458 C44.0688,98.8458 41.9988,96.7758 41.9988,94.2318 C41.9988,91.6848 44.0688,89.6148 46.6158,89.6148 C49.1598,89.6148 51.2298,91.6848 51.2298,94.2318 C51.2298,96.7758 49.1598,98.8458 46.6158,98.8458 M58.9248,91.1538 C57.2268,91.1538 55.8468,92.5338 55.8468,94.2318 C55.8468,95.9268 57.2268,97.3098 58.9248,97.3098 C60.6198,97.3098 61.9998,95.9268 61.9998,94.2318 C61.9998,92.5338 60.6198,91.1538 58.9248,91.1538 M58.9248,98.8458 C56.3778,98.8458 54.3078,96.7758 54.3078,94.2318 C54.3078,91.6848 56.3778,89.6148 58.9248,89.6148 C61.4688,89.6148 63.5388,91.6848 63.5388,94.2318 C63.5388,96.7758 61.4688,98.8458 58.9248,98.8458" id="Fill-15" fill="#C3CBD6"></path>
                <path d="M108.1158,37.1577 L126.5148,64.0317 C127.9548,66.1347 127.4148,69.0087 125.3118,70.4487 C124.5438,70.9737 123.6348,71.2557 122.7048,71.2557 L85.9098,71.2557 C83.3628,71.2557 81.2958,69.1887 81.2958,66.6387 C81.2958,65.7087 81.5748,64.7997 82.1028,64.0317 L100.4988,37.1577 C101.9388,35.0547 104.8098,34.5177 106.9158,35.9577 C107.3868,36.2817 107.7948,36.6867 108.1158,37.1577" id="Fill-17" fill="#F5F7F9"></path>
                <path d="M104.3145,36.3798 C104.1045,36.3798 103.8945,36.3978 103.6845,36.4398 C102.7965,36.6048 102.0255,37.1058 101.5125,37.8528 L83.1165,64.7268 C82.7295,65.2938 82.5255,65.9538 82.5255,66.6378 C82.5255,68.5038 84.0435,70.0248 85.9095,70.0248 L122.7045,70.0248 C123.3885,70.0248 124.0515,69.8178 124.6185,69.4308 C126.1575,68.3778 126.5535,66.2658 125.5005,64.7268 L107.1015,37.8528 C106.8645,37.5048 106.5645,37.2108 106.2195,36.9708 C105.6495,36.5808 104.9895,36.3798 104.3145,36.3798 M122.7045,72.4848 L85.9095,72.4848 C82.6875,72.4848 80.0655,69.8628 80.0655,66.6378 C80.0655,65.4528 80.4165,64.3128 81.0855,63.3348 L99.4845,36.4608 C100.3665,35.1738 101.6955,34.3068 103.2315,34.0188 C104.7645,33.7338 106.3215,34.0608 107.6115,34.9428 C108.2085,35.3538 108.7215,35.8638 109.1295,36.4608 L127.5285,63.3348 C129.3495,65.9958 128.6685,69.6408 126.0075,71.4618 C125.0295,72.1308 123.8865,72.4848 122.7045,72.4848" id="Fill-19" fill="#C3CBD6"></path>
                <path d="M104.7846,64.9119 L104.6046,64.9119 C103.4586,64.9119 102.5316,63.9819 102.5316,62.8389 C102.5316,61.6929 103.4586,60.7659 104.6046,60.7659 L104.7846,60.7659 C105.9306,60.7659 106.8576,61.6929 106.8576,62.8389 C106.8576,63.9819 105.9306,64.9119 104.7846,64.9119 M107.8836,48.9639 L106.5996,57.7359 C106.4886,58.4919 105.8406,59.0529 105.0786,59.0529 L104.2236,59.0529 C103.4586,59.0529 102.8106,58.4919 102.6996,57.7359 L101.4156,48.9639 C101.1726,47.2809 102.3366,45.7209 104.0166,45.4749 C104.1636,45.4509 104.3136,45.4419 104.4636,45.4419 L104.8386,45.4419 C106.5366,45.4419 107.9136,46.8189 107.9136,48.5169 C107.9136,48.6669 107.9046,48.8169 107.8836,48.9639" id="Fill-21" fill="#C3CBD6"></path>
            </g>
        </g>
    </g>
</svg>