<?xml version="1.0" encoding="UTF-8"?>
<svg width="1180px" height="688px" viewBox="0 0 1180 688" version="1.1" xmlns="http://www.w3.org/2000/svg" xmlns:xlink="http://www.w3.org/1999/xlink">
    <title>404</title>
    <defs>
        <polygon id="path-1" points="0 0.127105505 51.1936522 0.127105505 51.1936522 51.3215612 0 51.3215612"></polygon>
        <polygon id="path-3" points="0.190480712 39.5168563 328.523905 171.128128 344.168534 132.098685 15.8351098 0.487412844"></polygon>
        <linearGradient x1="2.27407711%" y1="40.5095939%" x2="97.7258114%" y2="59.4903643%" id="linearGradient-5">
            <stop stop-color="#D4EEFF" offset="0%"></stop>
            <stop stop-color="#D4EEFF" offset="100%"></stop>
        </linearGradient>
        <polygon id="path-6" points="0.291323442 32.348526 273.659157 141.927477 286.447976 110.023645 13.0794421 0.445394495"></polygon>
        <linearGradient x1="2.23456789%" y1="40.5334168%" x2="97.7654495%" y2="59.4664183%" id="linearGradient-8">
            <stop stop-color="#D4EEFF" offset="0%"></stop>
            <stop stop-color="#D4EEFF" offset="100%"></stop>
        </linearGradient>
        <polygon id="path-9" points="0.373331549 0.535733945 222.76908 0.535733945 222.76908 222.934018 0.373331549 222.934018"></polygon>
        <polygon id="path-11" points="0.601905045 0.207640673 873.277383 0.207640673 873.277383 3.50152905 0.601905045 3.50152905"></polygon>
        <linearGradient x1="50.9579843%" y1="-25.777138%" x2="49.7634139%" y2="68.7405518%" id="linearGradient-13">
            <stop stop-color="#151686" offset="0%"></stop>
            <stop stop-color="#2438B6" offset="100%"></stop>
        </linearGradient>
        <linearGradient x1="50.9581521%" y1="-25.777138%" x2="49.7635966%" y2="68.7405518%" id="linearGradient-14">
            <stop stop-color="#151686" offset="0%"></stop>
            <stop stop-color="#2438B6" offset="100%"></stop>
        </linearGradient>
        <path d="M79.0312878,0.60506422 L79.0312878,13.952893 C73.6817211,16.7744251 68.5548487,20.0455535 63.6324629,23.7711804 L63.6324629,23.7711804 C43.2251157,39.2129235 27.6014955,61.328581 16.7468961,90.0971437 L16.7468961,90.0971437 C5.8992997,118.879713 0.472700297,153.096654 0.472700297,192.747269 L0.472700297,192.747269 C0.472700297,232.056135 5.96232641,266.181336 16.9639881,295.132679 L16.9639881,295.132679 C27.9586469,324.090324 43.6592997,346.198979 64.0666469,361.465645 L64.0666469,361.465645 C68.8629792,365.051211 73.849092,368.216593 79.0312878,370.954789 L79.0312878,370.954789 L79.0312878,384.364945 L135.902386,384.364945 C163.389033,384.364945 187.262148,376.732312 207.521733,361.465645 L207.521733,361.465645 C227.775015,346.198979 243.404938,324.090324 254.4073,295.132679 L254.4073,295.132679 C265.401258,266.181336 270.899288,232.056135 270.899288,192.747269 L270.899288,192.747269 C270.899288,153.096654 265.471988,118.879713 254.623691,90.0971437 L254.623691,90.0971437 C243.769092,61.328581 228.209199,39.2129235 207.956617,23.7711804 L207.956617,23.7711804 C187.696332,8.328737 163.683157,0.60506422 135.902386,0.60506422 L135.902386,0.60506422 L79.0312878,0.60506422 Z" id="path-15"></path>
        <linearGradient x1="50.8107849%" y1="94.2686025%" x2="49.700125%" y2="33.6995002%" id="linearGradient-17">
            <stop stop-color="#151686" offset="0%"></stop>
            <stop stop-color="#2438B6" offset="100%"></stop>
        </linearGradient>
        <polygon id="path-18" points="0.601554896 63.6641009 5.01902671 124.933856 28.4516558 106.9423 22.3289614 0.0287125382"></polygon>
    </defs>
    <g id="Page-1" stroke="none" stroke-width="1" fill="none" fill-rule="evenodd">
        <g id="30-Startup-Story-Illustrations" transform="translate(-1761.000000, -9148.000000)">
            <g id="404" transform="translate(1761.000000, 9148.000000)">
                <g id="BG" transform="translate(0.000000, 33.779251)">
                    <path d="M308.728127,25.9414281 C308.728127,40.0785015 297.267771,51.5390061 283.131581,51.5390061 C268.994691,51.5390061 257.534335,40.0785015 257.534335,25.9414281 C257.534335,11.8043547 268.994691,0.344550459 283.131581,0.344550459 C297.267771,0.344550459 308.728127,11.8043547 308.728127,25.9414281" id="Fill-1" fill="#C3E4FF"></path>
                    <path d="M1024.0949,295.34102 C1024.0949,309.478093 1012.63524,320.937898 998.497652,320.937898 C984.361462,320.937898 972.901106,309.478093 972.901106,295.34102 C972.901106,281.203946 984.361462,269.744142 998.497652,269.744142 C1012.63524,269.744142 1024.0949,281.203946 1024.0949,295.34102" id="Fill-3" fill="#C3E4FF"></path>
                    <path d="M1145.85423,25.9414281 C1145.85423,40.0785015 1134.39458,51.5390061 1120.25699,51.5390061 C1106.1208,51.5390061 1094.66044,40.0785015 1094.66044,25.9414281 C1094.66044,11.8043547 1106.1208,0.344550459 1120.25699,0.344550459 C1134.39458,0.344550459 1145.85423,11.8043547 1145.85423,25.9414281" id="Fill-5" fill="#D6EEFF"></path>
                    <g id="Group-9" transform="translate(0.000000, 233.902141)">
                        <mask id="mask-2" fill="white">
                            <use xlink:href="#path-1"></use>
                        </mask>
                        <g id="Clip-8"></g>
                        <path d="M51.1936522,25.7239832 C51.1936522,39.8610566 39.7332961,51.3215612 25.5971062,51.3215612 C11.460216,51.3215612 -0.000140059347,39.8610566 -0.000140059347,25.7239832 C-0.000140059347,11.5869098 11.460216,0.127105505 25.5971062,0.127105505 C39.7332961,0.127105505 51.1936522,11.5869098 51.1936522,25.7239832" id="Fill-7" fill="#D6EEFF" mask="url(#mask-2)"></path>
                    </g>
                    <path d="M551.255803,446.524649 C551.255803,447.750184 551.171767,448.95471 551.003696,450.131224 C549.400017,461.532202 540.27515,470.524129 528.80429,471.931744 C527.774853,472.057098 526.724408,472.120826 525.659957,472.120826 C511.520966,472.120826 500.064112,460.663823 500.064112,446.524649 C500.064112,440.544037 502.108978,435.046637 505.540432,430.690735 C510.218414,424.766147 517.445477,420.956484 525.575922,420.928472 L525.659957,420.928472 C539.798948,420.928472 551.255803,432.385475 551.255803,446.524649" id="Fill-10" fill="#C3E4FF"></path>
                    <path d="M551.003486,450.131154 C549.399807,461.532132 540.27494,470.524059 528.80408,471.931674 C528.40491,470.454729 528.194821,468.89935 528.194821,467.295649 C528.194821,457.435343 536.19221,449.430848 546.059391,449.430848 C547.775818,449.430848 549.434821,449.675955 551.003486,450.131154" id="Fill-12" fill="#D6EEFF"></path>
                    <path d="M525.659747,422.328873 C525.659747,424.394775 525.127522,426.341625 524.196127,428.029362 C523.033634,430.123277 521.254881,431.832023 519.097967,432.896488 C517.522299,433.68083 515.743545,434.122023 513.86675,434.122023 C510.617373,434.122023 507.676127,432.805448 505.540222,430.690524 C510.218204,424.765937 517.445266,420.956274 525.575712,420.928261 C525.631735,421.38346 525.659747,421.852665 525.659747,422.328873" id="Fill-14" fill="#D6EEFF"></path>
                    <path d="M528.196642,432.552708 C528.196642,435.068906 526.156678,437.108897 523.639811,437.108897 C521.123645,437.108897 519.083681,435.068906 519.083681,432.552708 C519.083681,430.035809 521.123645,427.995818 523.639811,427.995818 C526.156678,427.995818 528.196642,430.035809 528.196642,432.552708" id="Fill-16" fill="#D6EEFF"></path>
                </g>
                <g id="Object" transform="translate(7.000000, 0.000000)">
                    <g id="Group-21" transform="translate(266.816024, 241.770076)">
                        <mask id="mask-4" fill="white">
                            <use xlink:href="#path-3"></use>
                        </mask>
                        <g id="Clip-20"></g>
                        <polygon id="Fill-19" fill="url(#linearGradient-5)" mask="url(#mask-4)" points="0.190480712 39.5168563 328.523905 171.128128 344.168534 132.098685 15.8351098 0.487412844"></polygon>
                    </g>
                    <g id="Group-24" transform="translate(499.314540, 236.867936)">
                        <mask id="mask-7" fill="white">
                            <use xlink:href="#path-6"></use>
                        </mask>
                        <g id="Clip-23"></g>
                        <polygon id="Fill-22" fill="url(#linearGradient-8)" mask="url(#mask-7)" points="0.291323442 32.348526 273.659157 141.927477 286.447976 110.023645 13.0794421 0.445394495"></polygon>
                    </g>
                    <g id="Group-122" transform="translate(0.002967, 0.164572)">
                        <path d="M795.316709,369.072787 C791.785812,377.882634 781.781373,382.161503 772.97094,378.630561 C764.161207,375.098919 759.881694,365.09435 763.41329,356.284503 C766.944887,347.474656 776.949326,343.195087 785.759759,346.726729 C794.569492,350.258371 798.848305,360.26294 795.316709,369.072787" id="Fill-25" fill="#D6EEFF"></path>
                        <path d="M622.673745,401.041047 C618.353614,411.818754 606.114528,417.053539 595.336961,412.733353 C584.558694,408.413166 579.324677,396.173922 583.644807,385.396215 C587.964938,374.618509 600.203323,369.383723 610.981591,373.703909 C621.758457,378.024096 626.993875,390.263341 622.673745,401.041047" id="Fill-27" fill="#D6EEFF"></path>
                        <path d="M614.395397,397.722788 C611.907943,403.928898 604.860857,406.943014 598.654827,404.455528 C592.448798,401.968042 589.43472,394.920865 591.922174,388.714754 C594.409628,382.508644 601.456715,379.494528 607.663445,381.982014 C613.868774,384.469501 616.883551,391.516678 614.395397,397.722788" id="Fill-29" fill="#AAD5FF"></path>
                        <path d="M787.943074,366.117006 C786.04457,370.854575 780.66419,373.15578 775.926682,371.256551 C771.189175,369.358022 768.888,363.977572 770.787205,359.240003 C772.686409,354.502435 778.066089,352.20123 782.803596,354.100459 C787.541104,355.999688 789.842279,361.379438 787.943074,366.117006" id="Fill-31" fill="#AAD5FF"></path>
                        <path d="M278.193439,362.96395 C273.351587,362.96395 269.424323,374.876151 269.424323,389.567867 C269.424323,374.876151 265.49916,362.96395 260.655207,362.96395 C265.49916,362.96395 269.424323,351.051748 269.424323,336.360032 C269.424323,351.051748 273.351587,362.96395 278.193439,362.96395" id="Fill-33" fill="#D6EEFF"></path>
                        <path d="M120.024488,419.946573 C120.024488,423.438998 117.193188,426.271035 113.700808,426.271035 C110.207728,426.271035 107.376428,423.438998 107.376428,419.946573 C107.376428,416.454148 110.207728,413.622811 113.700808,413.622811 C117.193188,413.622811 120.024488,416.454148 120.024488,419.946573" id="Fill-35" fill="#C3E4FF"></path>
                        <path d="M405.879243,405.327689 C405.879243,408.820114 403.047943,411.652151 399.555563,411.652151 C396.062483,411.652151 393.231183,408.820114 393.231183,405.327689 C393.231183,401.835264 396.062483,399.003928 399.555563,399.003928 C403.047943,399.003928 405.879243,401.835264 405.879243,405.327689" id="Fill-37" fill="#C3E4FF"></path>
                        <path d="M348.999601,198.568911 C348.999601,204.477391 344.210272,209.266783 338.301868,209.266783 C332.394165,209.266783 327.604135,204.477391 327.604135,198.568911 C327.604135,192.660431 332.394165,187.87104 338.301868,187.87104 C344.210272,187.87104 348.999601,192.660431 348.999601,198.568911" id="Fill-39" fill="#AAD5FF"></path>
                        <path d="M430.213224,40.2132404 C430.213224,43.7056654 427.381924,46.5370018 423.889544,46.5370018 C420.396464,46.5370018 417.565164,43.7056654 417.565164,40.2132404 C417.565164,36.7208153 420.396464,33.8894789 423.889544,33.8894789 C427.381924,33.8894789 430.213224,36.7208153 430.213224,40.2132404" id="Fill-41" fill="#D6EEFF"></path>
                        <path d="M275.748212,103.825169 C275.748212,107.317594 272.916913,110.14893 269.424533,110.14893 C265.931453,110.14893 263.100153,107.317594 263.100153,103.825169 C263.100153,100.332743 265.931453,97.501407 269.424533,97.501407 C272.916913,97.501407 275.748212,100.332743 275.748212,103.825169" id="Fill-43" fill="#D6EEFF"></path>
                        <path d="M13.0292309,44.1644358 C13.0292309,47.6568609 10.1979312,50.4881972 6.70555134,50.4881972 C3.21247122,50.4881972 0.381171513,47.6568609 0.381171513,44.1644358 C0.381171513,40.6720107 3.21247122,37.839974 6.70555134,37.839974 C10.1979312,37.839974 13.0292309,40.6720107 13.0292309,44.1644358" id="Fill-45" fill="#D6EEFF"></path>
                        <path d="M1087.65775,25.192241 C1087.65775,28.6846661 1084.82645,31.5160024 1081.33407,31.5160024 C1077.84099,31.5160024 1075.00969,28.6846661 1075.00969,25.192241 C1075.00969,21.6998159 1077.84099,18.8684795 1081.33407,18.8684795 C1084.82645,18.8684795 1087.65775,21.6998159 1087.65775,25.192241" id="Fill-47" fill="#D6EEFF"></path>
                        <path d="M1162.63054,134.173201 C1162.63054,137.665626 1159.79924,140.496962 1156.30686,140.496962 C1152.81378,140.496962 1149.98248,137.665626 1149.98248,134.173201 C1149.98248,130.680776 1152.81378,127.849439 1156.30686,127.849439 C1159.79924,127.849439 1162.63054,130.680776 1162.63054,134.173201" id="Fill-49" fill="#D6EEFF"></path>
                        <path d="M834.748737,220.926034 C834.748737,224.418459 831.917437,227.249796 828.425058,227.249796 C824.931977,227.249796 822.100678,224.418459 822.100678,220.926034 C822.100678,217.433609 824.931977,214.602273 828.425058,214.602273 C831.917437,214.602273 834.748737,217.433609 834.748737,220.926034" id="Fill-51" fill="#D6EEFF"></path>
                        <path d="M855.110005,37.8401841 C855.110005,41.3333095 852.278705,44.1646459 848.786325,44.1646459 C845.293245,44.1646459 842.461945,41.3333095 842.461945,37.8401841 C842.461945,34.347759 845.293245,31.5164226 848.786325,31.5164226 C852.278705,31.5164226 855.110005,34.347759 855.110005,37.8401841" id="Fill-53" fill="#D6EEFF"></path>
                        <path d="M1125.90194,425.43613 C1125.90194,428.928555 1123.07064,431.760592 1119.57826,431.760592 C1116.08518,431.760592 1113.25388,428.928555 1113.25388,425.43613 C1113.25388,421.943705 1116.08518,419.112369 1119.57826,419.112369 C1123.07064,419.112369 1125.90194,421.943705 1125.90194,425.43613" id="Fill-55" fill="#C3E4FF"></path>
                        <path d="M535.441352,44.1644358 C529.644296,44.1644358 524.941803,58.4275642 524.941803,76.0178456 C524.941803,58.4275642 520.242112,44.1644358 514.442254,44.1644358 C520.242112,44.1644358 524.941803,29.9013073 524.941803,12.3103257 C524.941803,29.9013073 529.644296,44.1644358 535.441352,44.1644358" id="Fill-57" fill="#E8F6FF"></path>
                        <path d="M867.814508,431.760452 C860.799636,431.760452 855.109725,449.018088 855.109725,470.301782 C855.109725,449.018088 849.424015,431.760452 842.406342,431.760452 C849.424015,431.760452 855.109725,414.502115 855.109725,393.218421 C855.109725,414.502115 860.799636,431.760452 867.814508,431.760452" id="Fill-59" fill="#E8F6FF"></path>
                        <path d="M366.616826,505.736416 C360.168494,505.736416 354.937277,521.602544 354.937277,541.171189 C354.937277,521.602544 349.708862,505.736416 343.257728,505.736416 C349.708862,505.736416 354.937277,489.869587 354.937277,470.301642 C354.937277,489.869587 360.168494,505.736416 366.616826,505.736416" id="Fill-61" fill="#D6EEFF"></path>
                        <path d="M1156.30665,289.422946 C1150.80722,289.422946 1146.34703,302.952154 1146.34703,319.63834 C1146.34703,302.952154 1141.88894,289.422946 1136.38811,289.422946 C1141.88894,289.422946 1146.34703,275.893738 1146.34703,259.207551 C1146.34703,275.893738 1150.80722,289.422946 1156.30665,289.422946" id="Fill-63" fill="#D6EEFF"></path>
                        <path d="M660.997274,527.347433 C660.997274,530.335638 658.574947,532.757995 655.586781,532.757995 C652.600015,532.757995 650.177689,530.335638 650.177689,527.347433 C650.177689,524.359228 652.600015,521.93687 655.586781,521.93687 C658.574947,521.93687 660.997274,524.359228 660.997274,527.347433" id="Fill-65" fill="#D6EEFF"></path>
                        <path d="M589.832349,149.497923 C589.832349,153.729171 586.402296,157.159269 582.171103,157.159269 C577.939209,157.159269 574.508456,153.729171 574.508456,149.497923 C574.508456,145.266675 577.939209,141.835877 582.171103,141.835877 C586.402296,141.835877 589.832349,145.266675 589.832349,149.497923" id="Fill-67" fill="#D6EEFF"></path>
                        <path d="M469.85247,111.115142 C469.85247,113.724481 467.736874,115.839405 465.128268,115.839405 C462.518963,115.839405 460.404066,113.724481 460.404066,111.115142 C460.404066,108.505802 462.518963,106.390879 465.128268,106.390879 C467.736874,106.390879 469.85247,108.505802 469.85247,111.115142" id="Fill-69" fill="#C3E4FF"></path>
                        <path d="M668.23407,51.6629602 C668.23407,59.3187034 662.028741,65.5248135 654.372396,65.5248135 C646.716753,65.5248135 640.511423,59.3187034 640.511423,51.6629602 C640.511423,44.0072171 646.716753,37.801107 654.372396,37.801107 C662.028741,37.801107 668.23407,44.0072171 668.23407,51.6629602" id="Fill-71" fill="#D6EEFF"></path>
                        <path d="M1031.0534,532.757645 C1031.0534,536.612829 1027.92797,539.738994 1024.07284,539.738994 C1020.21701,539.738994 1017.09158,536.612829 1017.09158,532.757645 C1017.09158,528.901761 1020.21701,525.776297 1024.07284,525.776297 C1027.92797,525.776297 1031.0534,528.901761 1031.0534,532.757645" id="Fill-73" fill="#AAD5FF"></path>
                        <path d="M231.117251,517.547913 C231.117251,519.972372 229.151518,521.93743 226.727091,521.93743 C224.303364,521.93743 222.337631,519.972372 222.337631,517.547913 C222.337631,515.123455 224.303364,513.157696 226.727091,513.157696 C229.151518,513.157696 231.117251,515.123455 231.117251,517.547913" id="Fill-75" fill="#AAD5FF"></path>
                        <path d="M703.025302,242.667308 C703.025302,245.091767 701.060269,247.057525 698.635842,247.057525 C696.212115,247.057525 694.246382,245.091767 694.246382,242.667308 C694.246382,240.24285 696.212115,238.277791 698.635842,238.277791 C701.060269,238.277791 703.025302,240.24285 703.025302,242.667308" id="Fill-77" fill="#AAD5FF"></path>
                        <path d="M511.036291,289.422946 C511.036291,291.847404 509.071258,293.812462 506.646831,293.812462 C504.222404,293.812462 502.257371,291.847404 502.257371,289.422946 C502.257371,286.998487 504.222404,285.033429 506.646831,285.033429 C509.071258,285.033429 511.036291,286.998487 511.036291,289.422946" id="Fill-79" fill="#D6EEFF"></path>
                        <path d="M364.729316,213.936632 C364.729316,216.361091 362.764284,218.326149 360.339856,218.326149 C357.915429,218.326149 355.949696,216.361091 355.949696,213.936632 C355.949696,211.512173 357.915429,209.547115 360.339856,209.547115 C362.764284,209.547115 364.729316,211.512173 364.729316,213.936632" id="Fill-81" fill="#D6EEFF"></path>
                        <path d="M22.9834588,451.856637 C22.9834588,454.281096 21.0177258,456.246154 18.5939988,456.246154 C16.1695715,456.246154 14.2038386,454.281096 14.2038386,451.856637 C14.2038386,449.432179 16.1695715,447.46642 18.5939988,447.46642 C21.0177258,447.46642 22.9834588,449.432179 22.9834588,451.856637" id="Fill-83" fill="#D6EEFF"></path>
                        <path d="M319.464096,289.422946 C319.464096,291.847404 317.499064,293.812462 315.074636,293.812462 C312.650209,293.812462 310.684476,291.847404 310.684476,289.422946 C310.684476,286.998487 312.650209,285.033429 315.074636,285.033429 C317.499064,285.033429 319.464096,286.998487 319.464096,289.422946" id="Fill-85" fill="#D6EEFF"></path>
                        <path d="M130.683144,319.63834 C130.683144,322.581725 128.297233,324.967667 125.353886,324.967667 C122.410539,324.967667 120.024628,322.581725 120.024628,319.63834 C120.024628,316.694955 122.410539,314.309013 125.353886,314.309013 C128.297233,314.309013 130.683144,316.694955 130.683144,319.63834" id="Fill-87" fill="#D6EEFF"></path>
                        <g id="Group-91" transform="translate(18.207715, 0.000000)">
                            <mask id="mask-10" fill="white">
                                <use xlink:href="#path-9"></use>
                            </mask>
                            <g id="Clip-90"></g>
                            <path d="M97.4245116,222.018161 C158.33142,229.831473 214.040025,186.789277 221.853236,125.88158 C229.666446,64.9738829 186.624808,9.26455566 125.7179,1.45124373 C64.8109923,-6.36136789 9.10238694,36.6801275 1.28917626,97.5878248 C-6.52403442,158.495522 36.5176036,214.204849 97.4245116,222.018161" id="Fill-89" fill="#D6EEFF" mask="url(#mask-10)"></path>
                        </g>
                        <path d="M169.365295,64.820726 C178.588203,66.0035425 187.024678,59.4857963 188.207479,50.2627688 C189.39098,41.0397413 182.873319,32.6031572 173.64971,31.4203407 C164.426802,30.2368239 155.990328,36.75457 154.807526,45.9782979 C153.624025,55.2013254 160.142387,63.6379095 169.365295,64.820726" id="Fill-92" fill="#E8F6FF"></path>
                        <path d="M170.592215,90.5651581 C174.268773,91.0364639 177.632298,88.4383294 178.104298,84.7610235 C178.575598,81.084418 175.976796,77.7208492 172.300239,77.2495434 C168.62298,76.7782376 165.260155,79.3756719 164.788155,83.0529777 C164.316856,86.7302835 166.915657,90.093152 170.592215,90.5651581" id="Fill-94" fill="#E8F6FF"></path>
                        <path d="M95.5075893,179.127512 C99.1841472,179.599518 102.547672,177.000683 103.019672,173.324077 C103.490972,169.646772 100.892171,166.283903 97.2156131,165.811897 C93.5383549,165.340591 90.17553,167.938726 89.70353,171.615331 C89.2322303,175.292637 91.8310315,178.656206 95.5075893,179.127512" id="Fill-96" fill="#E8F6FF"></path>
                        <path d="M59.965149,130.267525 C94.6907632,158.519262 122.722241,115.39303 122.722241,115.39303 C74.7049947,130.090348 61.4182647,84.0676508 117.207404,65.8064765 C151.809066,54.47903 147.855191,23.1606538 139.859202,1.00998104 C80.5580748,-4.4299945 27.1359383,38.0344489 19.4964012,97.590556 C16.9970421,117.074464 19.6987869,136.02544 26.5308819,153.049174 C28.8607691,149.803256 30.649327,146.65118 31.5611134,144.106269 C35.6151312,132.813837 34.5387751,109.581192 59.965149,130.267525" id="Fill-98" fill="#C3E4FF"></path>
                        <path d="M115.631877,222.021243 C176.542286,229.834554 232.248791,186.788157 240.061301,125.884661 C242.246227,108.852524 240.452767,92.2279642 235.40993,76.9444902 C231.784494,82.911796 224.605752,88.5709673 211.048007,81.0994046 C187.914405,68.3601416 183.188802,104.027417 201.942049,116.532077 C212.522132,123.587658 221.86269,136.511102 208.786749,145.925313 C194.422262,156.26883 169.800529,110.731444 147.017075,127.465952 C116.41971,149.940866 170.073645,183.706111 149.599069,193.787713 C136.799746,200.089765 127.624458,182.413346 127.624458,182.413346 C127.624458,182.413346 99.6539062,208.457019 74.3220724,186.736334 C65.8947015,179.509879 54.2179537,178.671613 48.0749507,187.153717 C65.1754967,205.699215 88.6536451,218.561031 115.631877,222.021243" id="Fill-100" fill="#C3E4FF"></path>
                        <path d="M1056.50757,168.419135 C1046.05704,229.20568 988.309175,270.011799 927.523418,259.561836 C866.737662,249.111872 825.932071,191.363255 836.381899,130.57601 C846.832427,69.7894657 904.580297,28.9840468 965.366053,39.4340101 C1026.15181,49.8839734 1066.9574,107.632591 1056.50757,168.419135" id="Fill-102" fill="#D6EEFF"></path>
                        <path d="M1058.10922,146.898738 C1034.13876,151.646811 974.606539,159.81938 927.903049,136.303111 C884.064474,114.222469 879.694622,92.8351294 858.539358,80.5867807 C862.047144,76.1118266 865.885471,71.9310009 870.009518,68.079319 C892.194919,69.1507869 928.883465,75.4255269 965.90115,101.392866 C997.330468,123.445496 1031.10578,127.619319 1055.79824,126.708921 C1057.17082,133.284793 1057.95516,140.035741 1058.10922,146.898738" id="Fill-104" fill="#E8F6FF"></path>
                        <path d="M911.025688,155.288402 C909.386993,155.939686 879.015824,167.53675 834.749367,150.148157 C834.722056,143.69834 835.247278,137.157484 836.381059,130.574609 C837.690614,122.934273 839.756489,115.616077 842.47364,108.669044 C858.245023,125.658463 894.120525,161.451093 911.025688,155.288402" id="Fill-106" fill="#E8F6FF"></path>
                        <path d="M1050.65827,189.694356 C1046.09934,201.557536 1039.6216,212.32824 1031.65922,221.705335 C1003.7664,211.375824 950.816969,195.296802 911.096138,204.393775 C888.79869,209.499004 868.24498,209.835151 851.542903,208.364509 C846.010559,199.456619 841.71774,189.764387 838.860529,179.553928 C862.803675,179.231787 908.428007,177.144876 946.446417,166.864387 C985.453645,156.317781 1023.1156,179.175763 1050.65827,189.694356" id="Fill-108" fill="#E8F6FF"></path>
                        <path d="M1012.5414,239.521044 C1007.68765,243.085601 1002.54117,246.257986 997.16989,248.996182 C969.683243,237.952359 934.500335,226.026151 915.51459,229.36661 C917.861284,228.86239 957.407041,220.906916 1012.5414,239.521044" id="Fill-110" fill="#E8F6FF"></path>
                        <path d="M1048.22845,103.50786 C1026.83439,102.051224 982.707992,95.0201535 947.105606,63.0371872 C927.5036,45.4314991 962.9036,48.8840067 1012.39357,59.3465755 C1027.97517,70.7615602 1040.3074,86.03523 1048.22845,103.50786" id="Fill-112" fill="#E8F6FF"></path>
                        <path d="M959.01037,260.495343 C948.772032,261.650848 938.197551,261.398738 927.525029,259.563937 C903.532863,255.439135 882.657017,243.947117 866.823308,227.805068 C886.164804,229.058616 925.045979,234.899166 959.01037,260.495343" id="Fill-114" fill="#E8F6FF"></path>
                        <path d="M922.342623,59.4935697 C918.792819,59.1714291 904.337994,57.5397165 893.245294,51.3069948 C898.981424,48.1906339 905.003276,45.5714902 911.24292,43.491582 C915.276629,51.215955 919.696202,58.5411538 922.342623,59.4935697" id="Fill-116" fill="#E8F6FF"></path>
                        <path d="M923.1619,59.5564572 C922.916796,59.6194847 922.651384,59.5914725 922.357259,59.4934297 C922.875479,59.535448 923.1619,59.5564572 923.1619,59.5564572" id="Fill-118" fill="#E8F6FF"></path>
                        <path d="M1086.62649,150.968285 C1134.93086,166.50597 1164.7572,182.71945 1162.68222,194.790621 C1159.04348,215.958065 1058.67345,216.370545 938.499729,195.710823 C818.326709,175.051102 723.857379,141.142994 727.496121,119.974851 C729.627824,107.574536 764.953593,102.297031 818.009474,104.205365" id="Stroke-120" stroke="#AAD5FF" stroke-width="19.6" stroke-linecap="round"></path>
                    </g>
                    <g id="Group-136" transform="translate(124.000000, 163.164572)">
                        <g id="Group-125" transform="translate(0.655786, 519.798165)">
                            <mask id="mask-12" fill="white">
                                <use xlink:href="#path-11"></use>
                            </mask>
                            <g id="Clip-124"></g>
                            <path d="M873.277383,1.85475994 C873.277383,2.76445719 677.921905,3.5018792 436.939294,3.5018792 C195.956682,3.5018792 0.601905045,2.76445719 0.601905045,1.85475994 C0.601905045,0.945062691 195.956682,0.207640673 436.939294,0.207640673 C677.921905,0.207640673 873.277383,0.945062691 873.277383,1.85475994" id="Fill-123" fill="#757A89" mask="url(#mask-12)"></path>
                        </g>
                        <path d="M216.260204,233.453484 L216.260204,103.955735 L138.126697,233.453484 L216.260204,233.453484 Z M206.710258,295.043979 L64.3336285,295.043979 L64.3336285,246.613631 L209.315361,8.67422691 L274.426851,8.67422691 L274.426851,233.453484 L319.136596,233.453484 L319.136596,295.043979 L274.426851,295.043979 L274.426851,376.63801 L206.710258,376.63801 L206.710258,295.043979 Z" id="Fill-126" fill="#2438B7"></path>
                        <path d="M524.453655,279.777943 C536.315981,259.075502 542.250996,230.475713 542.250996,193.972273 C542.250996,157.122882 536.390913,128.170139 524.671447,107.114044 C512.95058,86.0572486 496.089536,75.5288511 474.101619,75.5288511 C452.105299,75.5288511 435.251257,86.0572486 423.531791,107.114044 C411.810925,128.170139 405.951542,157.122882 405.951542,193.972273 C405.951542,230.475713 411.878853,259.075502 423.748183,279.777943 C435.611209,300.488787 452.397322,310.836506 474.101619,310.836506 C495.805215,310.836506 512.585026,300.488787 524.453655,279.777943 M402.261678,361.635989 C381.859934,346.369322 366.15858,324.259967 355.164622,295.307224 C344.163661,266.354481 338.669833,232.227879 338.669833,192.919713 C338.669833,153.265597 344.095732,119.048655 354.94753,90.2688878 C365.799328,61.4968235 381.42645,39.3867685 401.827494,23.9401232 C422.228539,8.50118135 446.320847,0.778208869 474.101619,0.778208869 C501.882391,0.778208869 525.898367,8.50118135 546.157251,23.9401232 C566.409833,39.3867685 581.969026,61.4968235 592.820824,90.2688878 C603.672622,119.048655 609.098521,153.265597 609.098521,192.919713 C609.098521,232.227879 603.598391,266.354481 592.603732,295.307224 C581.60277,324.259967 565.976349,346.369322 545.723767,361.635989 C525.464183,376.901955 501.590367,384.534588 474.101619,384.534588 C446.605168,384.534588 422.662723,376.901955 402.261678,361.635989" id="Fill-128" fill="#2438B7"></path>
                        <path d="M780.553642,233.453484 L780.553642,103.955735 L702.419434,233.453484 L780.553642,233.453484 Z M771.003695,295.043979 L628.627066,295.043979 L628.627066,246.613631 L773.608099,8.67422691 L838.719588,8.67422691 L838.719588,233.453484 L883.429333,233.453484 L883.429333,295.043979 L838.719588,295.043979 L838.719588,376.63801 L771.003695,376.63801 L771.003695,295.043979 Z" id="Fill-130" fill="#2438B7"></path>
                        <polygon id="Fill-132" fill="#2438B7" points="417.233602 384.534798 474.927549 384.534798 474.927549 0.774917431 417.233602 0.774917431"></polygon>
                        <path d="M216.260204,233.453484 L216.260204,103.955735 L138.126697,233.453484 L216.260204,233.453484 Z M206.710258,295.043979 L64.3336285,295.043979 L64.3336285,246.613631 L209.315361,8.67422691 L274.426851,8.67422691 L274.426851,233.453484 L319.136596,233.453484 L319.136596,295.043979 L274.426851,295.043979 L274.426851,376.63801 L206.710258,376.63801 L206.710258,295.043979 Z" id="Fill-134" fill="#2438B7"></path>
                        <path d="M780.553642,233.453484 L780.553642,103.955735 L702.419434,233.453484 L780.553642,233.453484 Z M771.003695,295.043979 L628.627066,295.043979 L628.627066,246.613631 L773.608099,8.67422691 L838.719588,8.67422691 L838.719588,233.453484 L883.429333,233.453484 L883.429333,295.043979 L838.719588,295.043979 L838.719588,376.63801 L771.003695,376.63801 L771.003695,295.043979 Z" id="Fill-135" fill="#2438B7"></path>
                    </g>
                    <polygon id="Fill-137" fill="url(#linearGradient-13)" points="906.803205 539.802722 962.719098 539.802722 962.719098 458.208691 906.803205 458.208691"></polygon>
                    <polygon id="Fill-139" fill="url(#linearGradient-14)" points="342.504795 539.802722 398.419988 539.802722 398.419988 458.208691 342.504795 458.208691"></polygon>
                    <g id="Group-143" transform="translate(462.198813, 163.335826)">
                        <mask id="mask-16" fill="white">
                            <use xlink:href="#path-15"></use>
                        </mask>
                        <g id="Clip-142"></g>
                        <path d="M79.0312878,0.60506422 L79.0312878,13.952893 C73.6817211,16.7744251 68.5548487,20.0455535 63.6324629,23.7711804 L63.6324629,23.7711804 C43.2251157,39.2129235 27.6014955,61.328581 16.7468961,90.0971437 L16.7468961,90.0971437 C5.8992997,118.879713 0.472700297,153.096654 0.472700297,192.747269 L0.472700297,192.747269 C0.472700297,232.056135 5.96232641,266.181336 16.9639881,295.132679 L16.9639881,295.132679 C27.9586469,324.090324 43.6592997,346.198979 64.0666469,361.465645 L64.0666469,361.465645 C68.8629792,365.051211 73.849092,368.216593 79.0312878,370.954789 L79.0312878,370.954789 L79.0312878,384.364945 L135.902386,384.364945 C163.389033,384.364945 187.262148,376.732312 207.521733,361.465645 L207.521733,361.465645 C227.775015,346.198979 243.404938,324.090324 254.4073,295.132679 L254.4073,295.132679 C265.401258,266.181336 270.899288,232.056135 270.899288,192.747269 L270.899288,192.747269 C270.899288,153.096654 265.471988,118.879713 254.623691,90.0971437 L254.623691,90.0971437 C243.769092,61.328581 228.209199,39.2129235 207.956617,23.7711804 L207.956617,23.7711804 C187.696332,8.328737 163.683157,0.60506422 135.902386,0.60506422 L135.902386,0.60506422 L79.0312878,0.60506422 Z" id="Fill-141" fill="url(#linearGradient-17)" mask="url(#mask-16)"></path>
                    </g>
                    <g id="Group-164" transform="translate(132.359050, 163.335826)">
                        <path d="M477.977033,193.798358 C477.977033,230.3053 472.038516,258.905789 460.182493,279.606829 C448.312463,300.314872 431.533353,310.665392 409.824154,310.665392 C388.121258,310.665392 371.335846,300.314872 359.472119,279.606829 C347.602789,258.905789 341.678279,230.3053 341.678279,193.798358 C341.678279,156.955269 347.539062,127.997624 359.255727,106.939428 C370.977994,85.8882358 387.827834,75.3556364 409.824154,75.3556364 C431.812772,75.3556364 448.675917,85.8882358 460.398884,106.939428 C472.114849,127.997624 477.977033,156.955269 477.977033,193.798358" id="Fill-144" fill="#0D0D0F"></path>
                        <path d="M404.062183,101.363524 C401.512402,101.363524 399.445827,106.437939 399.445827,112.696572 C399.445827,106.437939 397.379951,101.363524 394.830871,101.363524 C397.379951,101.363524 399.445827,96.289808 399.445827,90.0304746 C399.445827,96.289808 401.512402,101.363524 404.062183,101.363524" id="Fill-146" fill="#FFFFFF"></path>
                        <path d="M439.742442,124.289995 C435.549765,124.289995 432.151225,132.634139 432.151225,142.927234 C432.151225,132.634139 428.753385,124.289995 424.560709,124.289995 C428.753385,124.289995 432.151225,115.945851 432.151225,105.652757 C432.151225,115.945851 435.549765,124.289995 439.742442,124.289995" id="Fill-148" fill="#FFFFFF"></path>
                        <path d="M392.877604,171.36091 C389.757081,171.36091 387.22831,177.570522 387.22831,185.230467 C387.22831,177.570522 384.698838,171.36091 381.579716,171.36091 C384.698838,171.36091 387.22831,165.151298 387.22831,157.491354 C387.22831,165.151298 389.757081,171.36091 392.877604,171.36091" id="Fill-150" fill="#FFFFFF"></path>
                        <path d="M461.091268,173.699441 C459.195564,173.699441 457.659113,177.471989 457.659113,182.126221 C457.659113,177.471989 456.122662,173.699441 454.226959,173.699441 C456.122662,173.699441 457.659113,169.926894 457.659113,165.272661 C457.659113,169.926894 459.195564,173.699441 461.091268,173.699441" id="Fill-152" fill="#FFFFFF"></path>
                        <path d="M425.741339,255.984674 C422.023464,255.984674 419.010787,263.382704 419.010787,272.508389 C419.010787,263.382704 415.99741,255.984674 412.280935,255.984674 C415.99741,255.984674 419.010787,248.587343 419.010787,239.461658 C419.010787,248.587343 422.023464,255.984674 425.741339,255.984674" id="Fill-154" fill="#FFFFFF"></path>
                        <path d="M369.924468,215.892166 C367.076361,215.892166 364.768183,221.559741 364.768183,228.550894 C364.768183,221.559741 362.460005,215.892166 359.613299,215.892166 C362.460005,215.892166 364.768183,210.225291 364.768183,203.234139 C364.768183,210.225291 367.076361,215.892166 369.924468,215.892166" id="Fill-156" fill="#FFFFFF"></path>
                        <path d="M151.98512,233.28223 L151.98512,103.784481 L73.8516131,233.28223 L151.98512,233.28223 Z M142.435174,294.872725 L0.0585448071,294.872725 L0.0585448071,246.442377 L145.040278,8.50297309 L210.151767,8.50297309 L210.151767,233.28223 L254.861512,233.28223 L254.861512,294.872725 L210.151767,294.872725 L210.151767,376.466756 L142.435174,376.466756 L142.435174,294.872725 Z" id="Fill-158" fill="#285FD7"></path>
                        <path d="M460.182353,279.606689 C448.312323,300.314732 431.533213,310.665252 409.824014,310.665252 C388.121818,310.665252 371.335706,300.314732 359.471979,279.606689 C347.602649,258.905649 341.678139,230.30516 341.678139,193.798218 C341.678139,156.955129 347.538922,127.997484 359.255587,106.939288 C370.978554,85.8880957 387.827694,75.3554963 409.824014,75.3554963 C431.812631,75.3554963 448.675777,85.8880957 460.399445,106.939288 C472.114709,127.997484 477.976893,156.955129 477.976893,193.798218 C477.976893,230.30516 472.038376,258.905649 460.182353,279.606689 M528.54462,90.0969336 C517.697723,61.3283709 502.13713,39.2127135 481.883848,23.7709703 C461.624964,8.32922722 437.604786,0.604854128 409.824014,0.604854128 C382.042542,0.604854128 357.953035,8.32922722 337.553391,23.7709703 C317.153747,39.2127135 301.522424,61.3283709 290.675528,90.0969336 C283.230673,109.831551 278.343302,132.122285 276.004311,156.962132 C274.932857,168.356108 274.393628,180.282316 274.393628,192.747759 C274.393628,208.763753 275.304014,223.918371 277.131088,238.218616 C279.785213,259.003692 284.372857,277.974976 290.89262,295.132469 C301.886578,324.090114 317.587931,346.198769 337.987575,361.465435 C358.387219,376.732102 382.330364,384.365435 409.824014,384.365435 C437.317664,384.365435 461.19008,376.732102 481.449664,361.465435 C501.702246,346.198769 517.326566,324.090114 528.328228,295.132469 C539.322887,266.181827 544.826519,232.055924 544.826519,192.747759 C544.826519,153.096444 539.399219,118.879502 528.54462,90.0969336" id="Fill-160" fill="#285FD7"></path>
                        <path d="M716.278908,233.28223 L716.278908,103.784481 L638.1447,233.28223 L716.278908,233.28223 Z M706.728961,294.872725 L564.352332,294.872725 L564.352332,246.442377 L709.333365,8.50297309 L774.444855,8.50297309 L774.444855,233.28223 L819.154599,233.28223 L819.154599,294.872725 L774.444855,294.872725 L774.444855,376.466756 L706.728961,376.466756 L706.728961,294.872725 Z" id="Fill-162" fill="#285FD7"></path>
                    </g>
                    <g id="Group-167" transform="translate(612.062315, 405.641636)">
                        <mask id="mask-19" fill="white">
                            <use xlink:href="#path-18"></use>
                        </mask>
                        <g id="Clip-166"></g>
                        <polygon id="Fill-165" mask="url(#mask-19)" points="0.601554896 63.6641009 5.01902671 124.933856 28.4516558 106.9423 22.3289614 0.0287125382"></polygon>
                    </g>
                </g>
                <g id="Man" transform="translate(343.145401, 206.054480)">
                    <polygon id="Fill-168" fill="#EF3C86" points="6.449873 460.296513 14.8702409 438.066706 32.1682706 448.991476 22.8592261 468.893467"></polygon>
                    <path d="M7.43638101,457.471409 L0.0986718101,478.601736 L74.6697697,478.762807 C74.6697697,478.762807 61.4558706,464.188042 27.017378,460.003015 L7.43638101,457.471409 Z" id="Fill-170" fill="#0B096F"></path>
                    <polygon id="Fill-172" fill="#131318" points="59.0552534 218.347018 51.2203335 334.06625 2.72758576 452.843018 35.3943276 456.766831 88.8955976 350.959728 111.588013 230.473513"></polygon>
                    <path d="M97.3274504,95.1103529 L178.661314,78.8065333 C178.661314,78.8065333 183.110999,79.3856862 184.605433,84.6176709 C186.100566,89.850356 183.753172,92.8679737 183.753172,92.8679737 L100.037599,127.251588 L97.3274504,95.1103529 Z" id="Fill-174" fill="#FF77CA"></path>
                    <polygon id="Fill-176" fill="#FF77CA" points="88.6362777 117.544019 139.236919 132.325374 150.257488 96.7687471 161.796278 101.183475 154.303103 160.515484 83.4526813 148.913518"></polygon>
                    <polygon id="Fill-178" fill="#FE7A00" points="99.1961223 92.8681838 44.6605139 107.164227 110.127754 123.421126"></polygon>
                    <polyline id="Stroke-180" stroke="#0B096F" stroke-width="6.3" points="15.2118457 28.1405284 19.7987893 39.8657486 15.6761424 42.944293 5.56805935 36.0336752"></polyline>
                    <path d="M82.5689068,26.3261061 C82.5689068,26.3261061 105.142972,43.3582437 84.2026991,55.3299716 L82.5689068,26.3261061 Z" id="Fill-182" fill="#0B096F"></path>
                    <path d="M33.2362932,70.2607716 C30.2460261,65.8586492 13.5726611,63.9160009 12.9886136,75.8085942 C12.2357947,91.1431905 41.0221923,91.1284841 41.0221923,91.1284841 L45.7351893,111.900255 L71.3506433,108.572402 L66.3904415,90.2951202 C66.3904415,90.2951202 90.6466196,85.5708572 94.8897175,81.6253343 C94.8897175,81.6253343 92.2474979,57.4164627 84.1219549,41.9817226 L59.7544297,29.7697899 L28.928768,40.7912028 L33.2362932,70.2607716 Z" id="Fill-184" fill="#FF77CA"></path>
                    <path d="M19.2337199,67.5433049 C19.2337199,67.5433049 2.2382184,65.5537361 14.9416012,42.2146443 C27.6456843,18.8748523 46.1510255,24.0431092 46.1510255,24.0431092 C46.1510255,24.0431092 45.4332214,4.04237523 57.8298742,0.671103058 C75.4913579,-4.1329948 85.7542065,22.3700786 85.7542065,22.3700786 C85.7542065,22.3700786 90.5435359,5.0872315 96.1858267,5.80784618 C101.827417,6.52846086 115.586847,55.7228431 38.762895,51.1463446 C38.762895,51.1463446 48.5537436,63.055045 33.2361531,70.2604914 C33.2361531,70.2604914 28.8291858,65.2413997 19.2337199,67.5433049" id="Fill-186" fill="#0B096F"></path>
                    <path d="M68.0777365,78.9277563 C67.0777128,76.6839765 70.0385674,73.2328694 74.4826504,72.6950346 C81.0689412,71.8966859 85.481511,76.7491049 83.1768344,80.2961538 C80.9701994,83.692637 76.6241579,80.2408297 72.9293923,80.9222272 C70.9195407,81.292689 68.8375585,80.6337012 68.0777365,78.9277563" id="Fill-188" fill="#FFFFFF"></path>
                    <polygon id="Fill-190" fill="#EF3C86" points="66.3905816 90.2950502 49.84327 91.2670746 68.2939881 97.4689829"></polygon>
                    <polygon id="Fill-192" fill="#285FD7" points="77.9400154 57.2606446 86.9885496 68.9648557 80.5423181 70.8367731"></polygon>
                    <polygon id="Fill-194" fill="#EF3C86" points="116.988071 120.289848 99.7824807 94.5066893 109.363941 123.420916"></polygon>
                    <polygon id="Fill-196" fill="#EF3C86" points="117.78858 154.536133 112.428509 124.494414 111.210693 153.459063"></polygon>
                    <path d="M72.5428285,58.9269523 C73.355873,60.6153896 72.6464724,62.6427749 70.958057,63.45583 C69.2703418,64.268885 67.2422825,63.5594752 66.429238,61.8717382 C65.6161935,60.1833009 66.3255941,58.1552153 68.0140095,57.3421602 C69.7017246,56.5298055 71.729784,57.238515 72.5428285,58.9269523" id="Fill-198" fill="#0B096F"></path>
                    <path d="M88.8196154,54.9305872 C89.6326599,56.6190245 88.9232593,58.6464098 87.2348439,59.4594648 C85.5471288,60.2725199 83.5190694,59.5631101 82.7067252,57.8753731 C81.8929804,56.1869358 82.602381,54.1588502 84.2907964,53.3457951 C85.9785116,52.5327401 88.0065709,53.2421498 88.8196154,54.9305872" id="Fill-200" fill="#0B096F"></path>
                    <path d="M58.5529306,223.769276 C58.5529306,223.769276 4.84787418,144.478551 44.6604439,107.164157 C53.9316724,98.4740618 112.650853,119.21642 112.650853,119.21642 L110.688622,165.8869 L99.1960522,163.504459 L121.340135,198.262037 L133.392942,229.095102 C133.392942,229.095102 102.539969,222.133361 68.0636605,224.033991 C65.688254,224.164949 58.5529306,223.769276 58.5529306,223.769276" id="Fill-202" fill="#FFC100"></path>
                    <polygon id="Fill-204" fill="#EF3C86" points="272.004986 258.511657 258.943052 244.361278 274.190612 228.56448 284.713271 246.917394"></polygon>
                    <path d="M276.518609,224.323918 L214.479321,152.39971 C206.1696,143.390276 192.034811,143.096848 183.358134,151.754728 L121.339855,198.262037 C121.339855,198.262037 112.545529,222.423288 62.8202588,224.431765 C62.8202588,224.431765 81.6799501,267.904649 125.415582,252.497921 C145.11633,245.557891 200.866253,197.83415 200.866253,197.83415 L263.579226,258.654309 L276.518609,224.323918 Z" id="Fill-206" fill="#2D2D32"></path>
                    <line x1="66.0923953" y1="50.7763031" x2="60.2302113" y2="56.1490492" id="Stroke-208" stroke="#0B096F" stroke-width="4.9"></line>
                    <line x1="81.8132166" y1="47.2142676" x2="91.4135846" y2="48.756341" id="Stroke-210" stroke="#0B096F" stroke-width="4.9"></line>
                    <path d="M272.004986,258.511657 L284.713271,271.855284 L298.245805,199.615939 C298.245805,199.615939 288.372322,213.266299 279.555586,235.122143 L272.004986,258.511657 Z" id="Fill-212" fill="#0B096F"></path>
                    <polygon id="Fill-214" fill="#FE7A00" points="99.1961223 163.504319 71.6373448 156.56639 105.679469 173.680463"></polygon>
                    <path d="M163.152262,79.7319875 C162.690066,80.269122 162.122826,81.9617612 162.122826,81.9617612 C162.122826,81.9617612 155.513426,87.1076083 150.810933,95.2108468 C146.109141,103.314085 160.339871,106.445853 160.339871,106.445853 C160.339871,106.445853 164.732132,107.234397 165.990565,106.153825 C167.248998,105.071853 168.799455,105.604786 169.714043,105.023532 C170.62863,104.442278 171.324725,101.389645 173.67142,100.069569 C176.016713,98.7480914 174.424939,94.0679477 173.408108,93.2752015 C172.390577,92.4824554 166.195052,90.5082933 167.658672,85.5872443 C168.971728,81.1746174 165.620108,76.8656358 163.152262,79.7319875" id="Fill-216" fill="#FF77CA"></path>
                    <path d="M147.667791,108.062929 L151.164373,96.3664214 C151.164373,96.3664214 151.168574,89.2709229 162.999388,82.1116966" id="Stroke-218" stroke="#EF3C86" stroke-width="2.1"></path>
                    <path d="M167.46483,81.0505232 C167.46483,81.0505232 168.497067,82.6241104 167.46483,86.536719 C166.432592,90.4507281 171.97334,91.895459 173.407548,93.2750615 C174.841755,94.6546639 174.810298,96.5412878 174.810298,96.5412878" id="Stroke-220" stroke="#EF3C86" stroke-width="2.1"></path>
                    <line x1="161.072241" y1="106.956026" x2="161.796348" y2="100.592347" id="Stroke-222" stroke="#EF3C86" stroke-width="2.1"></line>
                </g>
            </g>
        </g>
    </g>
</svg>